<mxfile host="app.diagrams.net" modified="2024-06-05T01:49:59.945Z" agent="Mozilla/5.0 (Windows NT 10.0; Win64; x64) AppleWebKit/537.36 (KHTML, like Gecko) Chrome/125.0.0.0 Safari/537.36 Edg/125.0.0.0" version="24.4.13" etag="XsLaVbUgeO52p_4WE_j9" type="github">
  <diagram name="第 1 页" id="Fgdwkv_hYGYEqvtpbAh3">
    <mxGraphModel>
      <root>
        <mxCell id="0" />
        <mxCell id="1" parent="0" />
      </root>
    </mxGraphModel>
  </diagram>
</mxfile>
